<mxfile host="Electron" modified="2024-02-21T22:32:11.730Z" agent="Mozilla/5.0 (Windows NT 10.0; Win64; x64) AppleWebKit/537.36 (KHTML, like Gecko) draw.io/23.1.5 Chrome/120.0.6099.109 Electron/28.1.0 Safari/537.36" etag="2QSsotymAPWD5tiE61r5" version="23.1.5" type="device">
  <diagram name="Page-1" id="9PTen37L1RaKldLgZpsQ">
    <mxGraphModel dx="875" dy="524" grid="1" gridSize="10" guides="1" tooltips="1" connect="1" arrows="1" fold="1" page="1" pageScale="1" pageWidth="850" pageHeight="1100" math="0" shadow="0">
      <root>
        <mxCell id="0" />
        <mxCell id="1" parent="0" />
        <mxCell id="caCLWHI8gBvYd4M6infP-3" style="edgeStyle=orthogonalEdgeStyle;rounded=0;orthogonalLoop=1;jettySize=auto;html=1;entryX=0;entryY=0.5;entryDx=0;entryDy=0;strokeWidth=2;" edge="1" parent="1" source="caCLWHI8gBvYd4M6infP-1" target="caCLWHI8gBvYd4M6infP-2">
          <mxGeometry relative="1" as="geometry" />
        </mxCell>
        <mxCell id="caCLWHI8gBvYd4M6infP-1" value="&lt;font size=&quot;1&quot; style=&quot;&quot;&gt;&lt;b style=&quot;font-size: 32px;&quot;&gt;UI&lt;/b&gt;&lt;/font&gt;" style="rounded=1;whiteSpace=wrap;html=1;strokeWidth=2;" vertex="1" parent="1">
          <mxGeometry x="130" y="350" width="120" height="60" as="geometry" />
        </mxCell>
        <mxCell id="caCLWHI8gBvYd4M6infP-5" style="edgeStyle=orthogonalEdgeStyle;rounded=0;orthogonalLoop=1;jettySize=auto;html=1;strokeWidth=2;" edge="1" parent="1" source="caCLWHI8gBvYd4M6infP-2" target="caCLWHI8gBvYd4M6infP-4">
          <mxGeometry relative="1" as="geometry" />
        </mxCell>
        <mxCell id="caCLWHI8gBvYd4M6infP-2" value="&lt;font size=&quot;1&quot; style=&quot;&quot;&gt;&lt;b style=&quot;font-size: 32px;&quot;&gt;Arduino&lt;/b&gt;&lt;/font&gt;" style="rounded=1;whiteSpace=wrap;html=1;strokeWidth=2;" vertex="1" parent="1">
          <mxGeometry x="330" y="350" width="150" height="60" as="geometry" />
        </mxCell>
        <mxCell id="caCLWHI8gBvYd4M6infP-4" value="&lt;span style=&quot;font-size: 32px;&quot;&gt;&lt;b&gt;Piano&lt;/b&gt;&lt;/span&gt;" style="rounded=1;whiteSpace=wrap;html=1;strokeWidth=2;" vertex="1" parent="1">
          <mxGeometry x="560" y="350" width="120" height="60" as="geometry" />
        </mxCell>
        <mxCell id="caCLWHI8gBvYd4M6infP-7" style="edgeStyle=orthogonalEdgeStyle;rounded=0;orthogonalLoop=1;jettySize=auto;html=1;strokeWidth=2;" edge="1" parent="1" source="caCLWHI8gBvYd4M6infP-6" target="caCLWHI8gBvYd4M6infP-1">
          <mxGeometry relative="1" as="geometry" />
        </mxCell>
        <mxCell id="caCLWHI8gBvYd4M6infP-6" value="" style="shape=umlActor;verticalLabelPosition=bottom;verticalAlign=top;html=1;outlineConnect=0;strokeWidth=4;" vertex="1" parent="1">
          <mxGeometry x="160" y="160" width="60" height="120" as="geometry" />
        </mxCell>
        <mxCell id="caCLWHI8gBvYd4M6infP-9" value="&lt;font style=&quot;font-size: 28px;&quot;&gt;&lt;b&gt;User&lt;/b&gt;&lt;/font&gt;" style="text;html=1;align=center;verticalAlign=middle;whiteSpace=wrap;rounded=0;" vertex="1" parent="1">
          <mxGeometry x="155" y="120" width="70" height="30" as="geometry" />
        </mxCell>
      </root>
    </mxGraphModel>
  </diagram>
</mxfile>
